<svg width="64" height="64" viewBox="0 0 64 64" fill="none" xmlns="http://www.w3.org/2000/svg">
  <defs>
    <linearGradient id="g" x1="6" y1="6" x2="58" y2="58" gradientUnits="userSpaceOnUse">
      <stop offset="0" stop-color="#6366F1"/>
      <stop offset="1" stop-color="#8B5CF6"/>
    </linearGradient>
  </defs>
  <rect x="4" y="4" width="56" height="56" rx="14" fill="url(#g)"/>
  <path d="M20 17.5C20 16.67 20.67 16 21.5 16H41.5C42.33 16 43 16.67 43 17.5V44.5C43 45.33 42.33 46 41.5 46H22.5C21.12 46 20 44.88 20 43.5V17.5Z" fill="white" fill-opacity="0.95"/>
  <path d="M24 22H39" stroke="#6366F1" stroke-width="2.2" stroke-linecap="round"/>
  <path d="M24 27H39" stroke="#6366F1" stroke-width="2.2" stroke-linecap="round" opacity="0.8"/>
  <path d="M24 32H34" stroke="#6366F1" stroke-width="2.2" stroke-linecap="round" opacity="0.65"/>
  <path d="M25 38H39" stroke="#A78BFA" stroke-width="3" stroke-linecap="round"/>
  <path d="M14 17L30 17" stroke="#C4B5FD" stroke-width="2" stroke-linecap="round" opacity="0.7"/>
  <path d="M14 22L30 22" stroke="#C4B5FD" stroke-width="2" stroke-linecap="round" opacity="0.5"/>
</svg>
